<mxfile host="app.diagrams.net" modified="2024-01-19T11:28:07.652Z" agent="Mozilla/5.0 (Macintosh; Intel Mac OS X 10_15_7) AppleWebKit/537.36 (KHTML, like Gecko) Chrome/120.0.0.0 Safari/537.36" etag="ax5HJ3HNN4v1zD2P9Jx9" version="22.1.21" type="github">
  <diagram name="第 1 页" id="kyXWMlykcikelZ40TG3e">
    <mxGraphModel dx="1026" dy="685" grid="1" gridSize="10" guides="1" tooltips="1" connect="1" arrows="1" fold="1" page="1" pageScale="1" pageWidth="827" pageHeight="1169" math="0" shadow="0">
      <root>
        <mxCell id="0" />
        <mxCell id="1" parent="0" />
        <mxCell id="CVDlLkDqmx-SYbwejSdZ-1" value="&lt;i&gt;&lt;font style=&quot;font-size: 18px;&quot; face=&quot;Georgia&quot;&gt;l1&lt;/font&gt;&lt;/i&gt;" style="rounded=1;whiteSpace=wrap;html=1;" parent="1" vertex="1">
          <mxGeometry x="100" y="240" width="50" height="40" as="geometry" />
        </mxCell>
        <mxCell id="CVDlLkDqmx-SYbwejSdZ-2" value="" style="endArrow=classic;html=1;rounded=0;exitX=1;exitY=0.5;exitDx=0;exitDy=0;" parent="1" source="CVDlLkDqmx-SYbwejSdZ-1" edge="1">
          <mxGeometry width="50" height="50" relative="1" as="geometry">
            <mxPoint x="190" y="270" as="sourcePoint" />
            <mxPoint x="240" y="260" as="targetPoint" />
          </mxGeometry>
        </mxCell>
        <mxCell id="CVDlLkDqmx-SYbwejSdZ-3" value="&lt;div style=&quot;text-align: center;&quot;&gt;&lt;span style=&quot;background-color: initial; font-size: 18px;&quot;&gt;&lt;font face=&quot;Georgia&quot;&gt;&lt;i&gt;y&lt;/i&gt;&lt;/font&gt;&lt;/span&gt;&lt;/div&gt;" style="text;whiteSpace=wrap;html=1;" parent="1" vertex="1">
          <mxGeometry x="250" y="240" width="50" height="50" as="geometry" />
        </mxCell>
        <mxCell id="CVDlLkDqmx-SYbwejSdZ-4" value="&lt;div style=&quot;text-align: center;&quot;&gt;&lt;span style=&quot;background-color: initial; font-size: 18px;&quot;&gt;&lt;font face=&quot;Georgia&quot;&gt;&lt;i&gt;original&amp;nbsp; binary cross entropy&lt;/i&gt;&lt;/font&gt;&lt;/span&gt;&lt;/div&gt;" style="text;whiteSpace=wrap;html=1;" parent="1" vertex="1">
          <mxGeometry x="290" y="240" width="330" height="50" as="geometry" />
        </mxCell>
        <mxCell id="CVDlLkDqmx-SYbwejSdZ-5" value="&lt;i&gt;&lt;font style=&quot;font-size: 18px;&quot; face=&quot;Georgia&quot;&gt;l2&lt;/font&gt;&lt;/i&gt;" style="rounded=1;whiteSpace=wrap;html=1;" parent="1" vertex="1">
          <mxGeometry x="101" y="307" width="50" height="40" as="geometry" />
        </mxCell>
        <mxCell id="CVDlLkDqmx-SYbwejSdZ-6" value="" style="endArrow=classic;html=1;rounded=0;exitX=1;exitY=0.5;exitDx=0;exitDy=0;strokeColor=#0000FF;" parent="1" edge="1">
          <mxGeometry width="50" height="50" relative="1" as="geometry">
            <mxPoint x="151" y="326.5" as="sourcePoint" />
            <mxPoint x="241" y="326.5" as="targetPoint" />
          </mxGeometry>
        </mxCell>
        <mxCell id="CVDlLkDqmx-SYbwejSdZ-7" value="&lt;div style=&quot;text-align: center;&quot;&gt;&lt;font face=&quot;Georgia&quot;&gt;&lt;span style=&quot;font-size: 18px;&quot;&gt;&lt;i&gt;1 - y&lt;/i&gt;&lt;/span&gt;&lt;/font&gt;&lt;/div&gt;" style="text;whiteSpace=wrap;html=1;" parent="1" vertex="1">
          <mxGeometry x="250" y="307" width="50" height="50" as="geometry" />
        </mxCell>
        <mxCell id="CVDlLkDqmx-SYbwejSdZ-8" value="" style="endArrow=classic;html=1;rounded=0;exitX=1;exitY=0.5;exitDx=0;exitDy=0;strokeColor=#0000FF;" parent="1" edge="1">
          <mxGeometry width="50" height="50" relative="1" as="geometry">
            <mxPoint x="150" y="264.5" as="sourcePoint" />
            <mxPoint x="240" y="264.5" as="targetPoint" />
          </mxGeometry>
        </mxCell>
        <mxCell id="CVDlLkDqmx-SYbwejSdZ-9" value="&lt;font color=&quot;#0000cc&quot; face=&quot;Georgia&quot;&gt;&lt;span style=&quot;font-size: 18px;&quot;&gt;&lt;i&gt;auxiliary softmax loss (✅)&lt;/i&gt;&lt;/span&gt;&lt;/font&gt;" style="text;whiteSpace=wrap;html=1;" parent="1" vertex="1">
          <mxGeometry x="310" y="307" width="330" height="50" as="geometry" />
        </mxCell>
        <mxCell id="CVDlLkDqmx-SYbwejSdZ-10" value="" style="endArrow=classic;html=1;rounded=0;exitX=1;exitY=0.5;exitDx=0;exitDy=0;strokeColor=#CC0000;" parent="1" source="CVDlLkDqmx-SYbwejSdZ-5" edge="1">
          <mxGeometry width="50" height="50" relative="1" as="geometry">
            <mxPoint x="160" y="320" as="sourcePoint" />
            <mxPoint x="240" y="270" as="targetPoint" />
          </mxGeometry>
        </mxCell>
        <mxCell id="CVDlLkDqmx-SYbwejSdZ-11" value="" style="endArrow=classic;html=1;rounded=0;exitX=1;exitY=0.75;exitDx=0;exitDy=0;strokeColor=#CC0000;" parent="1" source="CVDlLkDqmx-SYbwejSdZ-1" edge="1">
          <mxGeometry width="50" height="50" relative="1" as="geometry">
            <mxPoint x="161" y="337" as="sourcePoint" />
            <mxPoint x="240" y="320" as="targetPoint" />
          </mxGeometry>
        </mxCell>
        <mxCell id="CVDlLkDqmx-SYbwejSdZ-12" value="&lt;font color=&quot;#cc0000&quot; face=&quot;Georgia&quot;&gt;&lt;span style=&quot;font-size: 18px;&quot;&gt;&lt;i style=&quot;&quot;&gt;auxiliary softmax loss (❎)&lt;/i&gt;&lt;/span&gt;&lt;/font&gt;" style="text;whiteSpace=wrap;html=1;" parent="1" vertex="1">
          <mxGeometry x="306" y="273" width="330" height="50" as="geometry" />
        </mxCell>
        <mxCell id="CVDlLkDqmx-SYbwejSdZ-13" value="&lt;i&gt;&lt;font style=&quot;font-size: 18px;&quot; face=&quot;Georgia&quot;&gt;l3?&lt;/font&gt;&lt;/i&gt;" style="rounded=1;whiteSpace=wrap;html=1;" parent="1" vertex="1">
          <mxGeometry x="100" y="380" width="50" height="40" as="geometry" />
        </mxCell>
        <mxCell id="CVDlLkDqmx-SYbwejSdZ-14" value="" style="endArrow=classic;html=1;rounded=0;exitX=1;exitY=0.5;exitDx=0;exitDy=0;strokeColor=#97D077;" parent="1" edge="1">
          <mxGeometry width="50" height="50" relative="1" as="geometry">
            <mxPoint x="151" y="337" as="sourcePoint" />
            <mxPoint x="240" y="280" as="targetPoint" />
          </mxGeometry>
        </mxCell>
        <mxCell id="CVDlLkDqmx-SYbwejSdZ-15" value="" style="endArrow=classic;html=1;rounded=0;exitX=1;exitY=0.5;exitDx=0;exitDy=0;strokeColor=#97D077;" parent="1" source="CVDlLkDqmx-SYbwejSdZ-13" edge="1">
          <mxGeometry width="50" height="50" relative="1" as="geometry">
            <mxPoint x="161" y="347" as="sourcePoint" />
            <mxPoint x="240" y="330" as="targetPoint" />
          </mxGeometry>
        </mxCell>
      </root>
    </mxGraphModel>
  </diagram>
</mxfile>
